<svg xmlns="http://www.w3.org/2000/svg" version="1.1" xmlns:xlink="http://www.w3.org/1999/xlink" width="200" height="200"><svg xmlns="http://www.w3.org/2000/svg" version="1.1" xmlns:xlink="http://www.w3.org/1999/xlink" width="200" height="200"><svg xmlns="http://www.w3.org/2000/svg" version="1.1" xmlns:xlink="http://www.w3.org/1999/xlink" viewBox="0 0 200 200"><rect width="200" height="200" fill="url('#gradient')"></rect><defs><linearGradient id="gradient" gradientTransform="rotate(45 0.5 0.5)"><stop offset="0%" stop-color="#577f99"></stop><stop offset="100%" stop-color="#577f99"></stop></linearGradient></defs><g><g fill="#0c1021" transform="matrix(5.217095952448344,0,0,5.217095952448344,15.902249163924012,127.7052772553285)" stroke="#c8512e" stroke-width="0"><path d="M1.16-10.57L4.46-10.57L4.46 0.36Q4.45 2.24 3.39 3.25Q2.32 4.27 0.42 4.27L0.42 4.27Q-0.40 4.27-1.13 4.10L-1.13 4.10L-1.13 1.61Q-0.57 1.70-0.21 1.70L-0.21 1.70Q1.16 1.70 1.16 0.34L1.16 0.34L1.16-10.57ZM0.92-13.29L0.92-13.29Q0.92-13.99 1.43-14.44Q1.93-14.89 2.74-14.89Q3.55-14.89 4.06-14.44Q4.57-13.99 4.57-13.29Q4.57-12.59 4.06-12.14Q3.55-11.69 2.74-11.69Q1.93-11.69 1.43-12.14Q0.92-12.59 0.92-13.29ZM6.35-10.57L9.43-10.57L9.54-9.33Q10.66-10.76 12.56-10.76L12.56-10.76Q14.56-10.76 15.26-9.17L15.26-9.17Q16.34-10.76 18.37-10.76L18.37-10.76Q21.58-10.76 21.67-6.88L21.67-6.88L21.67 0L18.37 0L18.37-6.67Q18.37-7.48 18.10-7.85Q17.82-8.22 17.10-8.22L17.10-8.22Q16.12-8.22 15.64-7.35L15.64-7.35L15.65-7.22L15.65 0L12.35 0L12.35-6.65Q12.35-7.48 12.09-7.85Q11.83-8.22 11.08-8.22L11.08-8.22Q10.14-8.22 9.64-7.35L9.64-7.35L9.64 0L6.35 0L6.35-10.57ZM33.37-8.40L33.37-5.81Q33.37-2.93 32.08-1.37Q30.78 0.20 28.43 0.20L28.43 0.20Q26.05 0.20 24.76-1.38Q23.46-2.95 23.46-5.81L23.46-5.81L23.46-8.41Q23.46-11.29 24.75-12.85Q26.04-14.41 28.41-14.41Q30.77-14.41 32.07-12.84Q33.37-11.27 33.37-8.40L33.37-8.40ZM30.08-5.31L30.08-8.83Q30.08-10.36 29.68-11.12Q29.28-11.88 28.41-11.88L28.41-11.88Q27.56-11.88 27.17-11.17Q26.79-10.47 26.76-9.04L26.76-9.04L26.76-5.41Q26.76-3.82 27.16-3.08Q27.56-2.34 28.43-2.34L28.43-2.34Q29.27-2.34 29.67-3.06Q30.07-3.78 30.08-5.31L30.08-5.31Z"></path></g></g></svg></svg><style>@media (prefers-color-scheme: light) { :root { filter: none; } }
@media (prefers-color-scheme: dark) { :root { filter: none; } }
</style></svg>